<svg width="18" height="19" viewBox="0 0 18 19" fill="none" xmlns="http://www.w3.org/2000/svg">
<path d="M13.5 18.3848V15.5723H10.6875C10.5383 15.5723 10.3952 15.513 10.2898 15.4075C10.1843 15.3021 10.125 15.159 10.125 15.0098C10.125 14.8606 10.1843 14.7175 10.2898 14.6121C10.3952 14.5066 10.5383 14.4473 10.6875 14.4473H13.5V11.6348C13.5 11.4856 13.5593 11.3426 13.6648 11.2371C13.7702 11.1316 13.9133 11.0723 14.0625 11.0723C14.2117 11.0723 14.3548 11.1316 14.4602 11.2371C14.5657 11.3426 14.625 11.4856 14.625 11.6348V14.4473H17.4375C17.5867 14.4473 17.7298 14.5066 17.8352 14.6121C17.9407 14.7175 18 14.8606 18 15.0098C18 15.159 17.9407 15.3021 17.8352 15.4075C17.7298 15.513 17.5867 15.5723 17.4375 15.5723H14.625V18.3848C14.625 18.534 14.5657 18.677 14.4602 18.7825C14.3548 18.888 14.2117 18.9473 14.0625 18.9473C13.9133 18.9473 13.7702 18.888 13.6648 18.7825C13.5593 18.677 13.5 18.534 13.5 18.3848ZM7.5375 18.9473H0V2.6349C0.00740446 2.18086 0.194516 1.74828 0.520325 1.43196C0.846134 1.11565 1.28406 0.941401 1.73812 0.947416H9.84938C10.3034 0.941698 10.7411 1.11604 11.0669 1.4323C11.3926 1.74855 11.5798 2.18096 11.5875 2.6349V9.38485C11.5875 9.5385 11.5265 9.68587 11.4178 9.79452C11.3092 9.90318 11.1618 9.96422 11.0081 9.96422C10.8545 9.96422 10.7071 9.90318 10.5984 9.79452C10.4898 9.68587 10.4288 9.5385 10.4288 9.38485V2.6349C10.4264 2.48352 10.364 2.33927 10.2554 2.23381C10.1468 2.12835 10.0008 2.0703 9.84938 2.07241H1.73812C1.58663 2.0703 1.44048 2.12831 1.33168 2.23374C1.22288 2.33917 1.16029 2.48342 1.15763 2.6349V17.8223H3.47625V13.8848C3.47891 13.7333 3.5415 13.5891 3.65031 13.4836C3.75911 13.3782 3.90526 13.3202 4.05675 13.3223H7.5375C7.68888 13.3202 7.83492 13.3783 7.94354 13.4837C8.05217 13.5892 8.11451 13.7334 8.11688 13.8848V17.8223H9.84938C9.99856 17.8223 10.1416 17.8815 10.2471 17.987C10.3526 18.0925 10.4119 18.2356 10.4119 18.3848C10.4119 18.534 10.3526 18.677 10.2471 18.7825C10.1416 18.888 9.99856 18.9473 9.84938 18.9473H7.5375ZM4.635 17.8223H6.9525V14.4473H4.635V17.8223ZM6.9525 11.0723V8.82235H9.27V11.0723H6.9525ZM2.3175 11.0723V8.82235H4.635V11.0723H2.3175ZM6.9525 6.57237V4.32239H9.27V6.57237H6.9525ZM2.3175 6.57237V4.32239H4.635V6.57237H2.3175Z" fill="#9198B0"/>
</svg>
