<svg width="17" height="17" viewBox="0 0 17 17" fill="none" xmlns="http://www.w3.org/2000/svg">
<path d="M16.0214 14.3952C16.0059 14.3809 14.5691 12.9759 14.5691 10.8745V7.26394C14.5691 3.86284 11.837 1.09677 8.48063 1.09677C5.12424 1.09677 2.3922 3.86284 2.3922 7.26394V10.8745C2.3922 12.9156 0.946474 14.3875 0.93319 14.4017L0 15.3373H17L16.0214 14.3952ZM2.44976 14.2405C2.94126 13.4815 3.49919 12.3058 3.49919 10.8745V7.26394C3.49919 4.46826 5.73419 2.19355 8.48063 2.19355C11.2271 2.19355 13.4621 4.46826 13.4621 7.26394V10.8745C13.4621 12.3223 14.01 13.4881 14.5004 14.2405H2.44976ZM9.03412 1.09677H7.92713V0H9.03412V1.09677ZM9.03412 15.3548H10.1411C10.1411 16.2619 9.39611 17 8.48063 17C7.56515 17 6.82015 16.2619 6.82015 15.3548H7.92713C7.92713 15.6575 8.17621 15.9032 8.48063 15.9032C8.78505 15.9032 9.03412 15.6575 9.03412 15.3548Z" fill="#9198B0"/>
</svg>
