<svg width="17" height="17" viewBox="0 0 17 17" fill="none" xmlns="http://www.w3.org/2000/svg">
<path d="M15.5 0H1.5C0.673 0 0 0.668986 0 1.49105V11.4314C0 12.2535 0.673 12.9225 1.5 12.9225H2V17L6.688 12.9225H15.5C16.327 12.9225 17 12.2535 17 11.4314V1.49105C17 0.668986 16.327 0 15.5 0ZM16 11.4314C16 11.7048 15.776 11.9284 15.5 11.9284H6.312L3 14.8091V11.9284H1.5C1.224 11.9284 1 11.7048 1 11.4314V1.49105C1 1.21769 1.224 0.994036 1.5 0.994036H15.5C15.776 0.994036 16 1.21769 16 1.49105V11.4314ZM3 2.98211H14V3.97614H3V2.98211ZM3 4.97018H14V5.96422H3V4.97018ZM3 6.95825H9V7.95229H3V6.95825Z" fill="#9198B0"/>
</svg>
