<svg width="17" height="17" viewBox="0 0 17 17" fill="none" xmlns="http://www.w3.org/2000/svg">
<path d="M16.989 16.488C16.9261 13.801 14.2148 11.489 10.4768 10.879V9.505C10.9682 9.032 11.3177 8.298 11.5464 7.672C11.8779 7.506 12.1695 7.136 12.3393 6.639C12.577 5.951 12.4851 5.316 12.1336 5.01C12.1615 4.772 12.1795 4.529 12.1486 4.287C12.0697 3.624 12.2135 3.249 12.3423 2.919C12.4482 2.642 12.571 2.328 12.4482 1.974C12.0068 0.701 10.7235 0 8.83505 0L8.5714 0.005C7.26018 0.052 6.86671 0.605 6.60307 1.12C6.57011 1.182 6.52617 1.266 6.52617 1.271C4.81648 1.424 4.83146 2.84 4.84445 3.978L4.84744 4.347C4.84744 4.552 4.85643 4.766 4.87341 4.986C4.44898 5.286 4.37009 5.991 4.69465 6.723C4.8794 7.138 5.14604 7.452 5.44264 7.615C5.68531 8.289 6.06679 9.085 6.62004 9.58V10.863C2.82718 11.452 0.0748987 13.77 0.0119838 16.488L0 17H17L16.989 16.488ZM1.06456 16C1.45603 13.906 3.9197 12.179 7.17829 11.796L7.61869 11.744V9.078L7.40298 8.928C7.01052 8.656 6.61305 7.981 6.31446 7.077L6.23157 6.796L5.93797 6.745C5.88504 6.726 5.73025 6.592 5.60841 6.317C5.53351 6.149 5.50455 6.005 5.49656 5.902L6.00587 6.045L5.91 5.296C5.86806 4.966 5.84609 4.645 5.84609 4.346L5.8431 3.966C5.82812 2.625 5.89403 2.332 6.61505 2.267C7.15931 2.219 7.36603 1.818 7.48987 1.578C7.63966 1.286 7.76949 1.035 8.60835 1.004L8.83505 1C9.66293 1 11.111 1.169 11.5004 2.282C11.5004 2.325 11.4485 2.459 11.4106 2.557C11.2658 2.931 11.0471 3.496 11.1569 4.41C11.1809 4.598 11.1499 4.834 11.117 5.085L11.0281 5.89L11.4685 5.842C11.4765 5.946 11.4645 6.111 11.3936 6.314C11.2967 6.603 11.1519 6.752 11.1569 6.768H10.7974L10.6835 7.11C10.4009 7.963 10.0344 8.607 9.67591 8.878L9.47818 9.028V11.754L9.91559 11.809C13.1222 12.21 15.549 13.932 15.9374 16.001L1.06456 16Z" fill="#9198B0"/>
</svg>
