<svg width="27" height="27" viewBox="0 0 27 27" fill="none" xmlns="http://www.w3.org/2000/svg">
<path d="M24.319 22.4338C24.2968 22.4132 22.2353 20.3787 22.2353 17.3356V12.1071C22.2353 7.18202 18.3155 3.17649 13.5 3.17649C8.68446 3.17649 4.7647 7.18202 4.7647 12.1071V17.3356C4.7647 20.2913 2.69046 22.4227 2.6714 22.4434L1.33252 23.7981H25.723L24.319 22.4338ZM4.84728 22.2099C5.55246 21.1108 6.35293 19.4083 6.35293 17.3356V12.1071C6.35293 8.05873 9.55958 4.76473 13.5 4.76473C17.4404 4.76473 20.647 8.05873 20.647 12.1071V17.3356C20.647 19.4321 21.4332 21.1204 22.1368 22.2099H4.84728ZM14.2941 3.17649H12.7059V1.58826H14.2941V3.17649ZM14.2941 23.8236H15.8823C15.8823 25.137 14.8135 26.2059 13.5 26.2059C12.1865 26.2059 11.1176 25.137 11.1176 23.8236H12.7059C12.7059 24.2619 13.0632 24.6177 13.5 24.6177C13.9368 24.6177 14.2941 24.2619 14.2941 23.8236Z" fill="white"/>
</svg>
