<svg width="25" height="24" viewBox="0 0 25 24" fill="none" xmlns="http://www.w3.org/2000/svg">
<path d="M12.5 13.2348C12.4208 13.2348 12.3425 13.2143 12.265 13.1743L0.361789 6.93976C0.137626 6.82272 -0.00487249 6.55449 0.000127439 6.25505C0.00512737 5.95952 0.159292 5.69129 0.383455 5.58887L12.2883 0.047793C12.3566 0.0165811 12.4275 0 12.5 0C12.5716 0 12.6433 0.0165811 12.7116 0.047793L24.6156 5.58692C24.8448 5.69421 24.9948 5.95561 24.9998 6.2531C25.0064 6.55352 24.8639 6.82272 24.6381 6.93976L12.7341 13.1773C12.6599 13.2153 12.58 13.2348 12.5 13.2348ZM2.18843 6.3087L12.4708 11.6947L22.8115 6.3087L12.5 1.51085L2.18843 6.3087Z" fill="#6A6A65"/>
<path d="M0.362037 12.1824C0.0612078 12.0234 -0.0796235 11.5932 0.048708 11.2236C0.142873 10.9554 0.358704 10.7808 0.597867 10.7808C0.678699 10.7808 0.757031 10.8012 0.832864 10.8412L12.4719 16.9363L24.1692 10.8412C24.2459 10.8003 24.3242 10.7808 24.405 10.7808C24.6434 10.7808 24.8584 10.9534 24.9517 11.2236C25.0809 11.5932 24.94 12.0234 24.6384 12.1824L12.5002 18.5398L0.362037 12.1824Z" fill="#6A6A65"/>
<path d="M0.361897 17.0493C0.0602349 16.8894 -0.0805964 16.4602 0.0485684 16.0925C0.142734 15.8242 0.358564 15.6497 0.597727 15.6497C0.678559 15.6497 0.756892 15.6701 0.832724 15.7092L12.4717 21.8052L24.1691 15.7092C24.2441 15.6711 24.3241 15.6497 24.4049 15.6497C24.6432 15.6497 24.8582 15.8242 24.9516 16.0925C25.0807 16.4612 24.9399 16.8913 24.6391 17.0493L12.5001 23.4087L0.361897 17.0493Z" fill="#6A6A65"/>
</svg>
