<svg width="20" height="20" viewBox="0 0 20 20" fill="none" xmlns="http://www.w3.org/2000/svg">
<g clip-path="url(#clip0_877_843)">
<path d="M6.03998 9.48L9.59998 12.8L17.6 3.36" stroke="white" stroke-width="3" stroke-miterlimit="10"/>
<path d="M17.7456 5.0448L17.1976 5.6916C17.9556 6.9532 18.4 8.424 18.4 10C18.4 14.6316 14.6316 18.4 9.99999 18.4C5.36839 18.4 1.59999 14.6316 1.59999 10C1.59999 5.3684 5.36839 1.6 9.99999 1.6C12.1772 1.6 14.1572 2.4396 15.6512 3.8036L16.1748 3.186C14.5408 1.704 12.374 0.800003 9.99999 0.800003C4.92679 0.800003 0.799988 4.9268 0.799988 10C0.799988 15.0732 4.92679 19.2 9.99999 19.2C15.0732 19.2 19.2 15.0732 19.2 10C19.2 8.176 18.6644 6.476 17.7456 5.0448Z" fill="white"/>
</g>
<defs>
<clipPath id="clip0_877_843">
<rect width="20" height="20" fill="white"/>
</clipPath>
</defs>
</svg>
