<svg width="25" height="22" viewBox="0 0 25 22" fill="none" xmlns="http://www.w3.org/2000/svg">
<path d="M12.4287 8.85714C14.4012 8.85714 16.0002 7.09826 16.0002 4.92857C16.0002 2.75888 14.4012 1 12.4287 1C10.4563 1 8.8573 2.75888 8.8573 4.92857C8.8573 7.09826 10.4563 8.85714 12.4287 8.85714Z" stroke="#6A6A65" stroke-linecap="round"/>
<path d="M15.2856 2.60714C15.5885 2.05659 16.0402 1.61266 16.5833 1.33148C17.1265 1.05031 17.737 0.944524 18.3375 1.0275C18.9378 1.11048 19.5014 1.3785 19.9568 1.79766C20.4121 2.21682 20.7389 2.76831 20.8957 3.38236C21.0523 3.99644 21.0321 4.6455 20.8375 5.24748C20.6427 5.84947 20.2823 6.37734 19.8018 6.76435C19.3214 7.15135 18.7423 7.38011 18.138 7.42169C17.5336 7.46327 16.9311 7.31579 16.4066 6.99793" stroke="#6A6A65"/>
<path d="M9.57159 2.60714C9.26873 2.05659 8.81713 1.61266 8.27393 1.33148C7.73074 1.05031 7.12031 0.944524 6.51984 1.0275C5.91936 1.11048 5.35582 1.3785 4.90047 1.79766C4.44511 2.21682 4.1184 2.76831 3.96164 3.38236C3.80489 3.99644 3.82513 4.6455 4.01981 5.24748C4.21449 5.84947 4.57487 6.37734 5.05537 6.76435C5.53586 7.15135 6.1149 7.38011 6.71925 7.42169C7.32361 7.46327 7.92614 7.31579 8.45065 6.99793" stroke="#6A6A65"/>
<path d="M9.57142 11.7144C16.0283 11.7144 17.6951 16.8249 18.1254 19.4633C18.2631 20.3074 17.5667 21.0001 16.6926 21.0001H2.4502C1.5762 21.0001 0.879779 20.3074 1.01742 19.4633C1.44767 16.8249 3.11447 11.7144 9.57142 11.7144Z" stroke="#6A6A65" stroke-linecap="round"/>
<path d="M15.2858 11.7144C21.7427 11.7144 23.4095 16.8249 23.8398 19.4633C23.9775 20.3074 23.281 21.0001 22.407 21.0001H8.16455C7.29056 21.0001 6.59413 20.3074 6.73178 19.4633C7.16203 16.8249 8.82882 11.7144 15.2858 11.7144Z" stroke="#6A6A65" stroke-linecap="round"/>
</svg>
