<svg width="24" height="24" viewBox="0 0 24 24" fill="none" xmlns="http://www.w3.org/2000/svg">
<path d="M13.7917 14.5541L13.7144 14.7274L13.753 14.92L14.6037 18.1749L14.7971 18.9838L15.4738 18.5023L18.2772 16.5186L18.4125 16.4223L18.4705 16.2682L23.7874 2.86367L24.0001 2.32441L23.4587 2.11255L20.0753 0.783658L19.5532 0.591064L19.3406 1.09181L13.7917 14.5541ZM19.6886 1.84292L23.072 3.17182L22.7434 2.43996L17.4265 15.8445L17.6198 15.5941L14.8164 17.5778L15.6864 17.9052L14.8744 14.6504L14.8551 15.0163L20.4039 1.53477L19.6886 1.84292Z" fill="#6A6A65"/>
<path d="M20.9748 7.99043L18.4286 7.00604C18.2575 6.94698 18.1815 6.7501 18.2385 6.57291L18.4286 6.06103C18.4856 5.88384 18.6756 5.80509 18.8466 5.86416L21.3929 6.84854C21.5639 6.90761 21.6399 7.10448 21.5829 7.28167L21.3929 7.79355C21.3359 7.97074 21.1459 8.04949 20.9748 7.99043ZM17.3264 16.4561L14.7801 15.4718C14.6091 15.4127 14.5331 15.2158 14.5901 15.0386L14.7801 14.5267C14.8372 14.3496 15.0272 14.2708 15.1982 14.3299L17.7445 15.3143C17.9155 15.3733 17.9915 15.5702 17.9345 15.7474L17.7445 16.2593C17.6875 16.4365 17.4975 16.5152 17.3264 16.4561ZM21.6589 6.08072L19.1126 5.09634C18.9416 5.03727 18.8656 4.8404 18.9226 4.66321L19.1126 4.15133C19.1696 3.97414 19.3597 3.89539 19.5307 3.95445L22.077 4.93883C22.248 4.9979 22.324 5.19477 22.267 5.37196L22.077 5.88384C22.02 6.06103 21.8299 6.15947 21.6589 6.08072Z" fill="#6A6A65"/>
<path d="M22.6035 24H1.39651C0.618454 24 0 23.4046 0 22.6554V7.78796C0 7.03883 0.618454 6.44336 1.39651 6.44336H15.7606C16.0998 6.44336 16.3591 6.69307 16.3591 7.01962C16.3591 7.34616 16.0998 7.59588 15.7606 7.59588H1.39651C1.29676 7.59588 1.19701 7.69192 1.19701 7.78796V22.6554C1.19701 22.7515 1.29676 22.8475 1.39651 22.8475H22.6035C22.7032 22.8475 22.803 22.7515 22.803 22.6554V8.49868C22.803 8.17213 23.0623 7.92242 23.4015 7.92242C23.7406 7.92242 24 8.17213 24 8.49868V22.6554C24 23.4046 23.3815 24 22.6035 24Z" fill="#6A6A65"/>
<path d="M8.47254 12.7203H4.10677C3.74649 12.7203 3.42859 12.4445 3.42859 12.0898C3.42859 11.7548 3.72529 11.4592 4.10677 11.4592H8.49374C8.85402 11.4592 9.17192 11.7351 9.17192 12.0898C9.15072 12.4445 8.85402 12.7203 8.47254 12.7203ZM9.61697 15.0257H4.10677C3.74649 15.0257 3.42859 14.7499 3.42859 14.3952C3.42859 14.0602 3.72529 13.7646 4.10677 13.7646H9.61697C9.97725 13.7646 10.2952 14.0405 10.2952 14.3952C10.274 14.7499 9.97725 15.0257 9.61697 15.0257ZM10.4647 17.3115H4.10677C3.74649 17.3115 3.42859 17.0356 3.42859 16.6809C3.42859 16.3459 3.72529 16.0504 4.10677 16.0504H10.4647C10.825 16.0504 11.1429 16.3262 11.1429 16.6809C11.1217 17.0356 10.825 17.3115 10.4647 17.3115Z" fill="#6A6A65"/>
</svg>
