<svg width="27" height="27" viewBox="0 0 27 27" fill="none" xmlns="http://www.w3.org/2000/svg">
<g clip-path="url(#clip0_449_228)">
<path d="M13.5 0C6.05594 0 0 6.05594 0 13.5C0 20.9441 6.05594 27 13.5 27C20.9441 27 27 20.9441 27 13.5C27 6.05594 20.9441 0 13.5 0ZM13.5 25.4118C6.93106 25.4118 1.58824 20.0689 1.58824 13.5C1.58824 6.93106 6.93106 1.58824 13.5 1.58824C20.0689 1.58824 25.4118 6.93106 25.4118 13.5C25.4118 20.0689 20.0689 25.4118 13.5 25.4118ZM15.3392 19.4066C15.3392 20.3088 14.6054 21.0441 13.7017 21.0441C12.7948 21.0441 12.0611 20.3088 12.0611 19.4066C12.0611 18.5014 12.7948 17.7676 13.7017 17.7676C14.6054 17.7676 15.3392 18.4998 15.3392 19.4066ZM16.9338 6.69441C17.6453 7.59176 18.0042 8.80359 17.8073 9.64059C17.4214 11.2717 16.47 12.1294 15.6298 12.8854C14.7674 13.662 14.1464 14.2195 14.1464 15.5012H12.5582C12.5582 13.5143 13.6239 12.5534 14.5657 11.7053C15.2979 11.0462 15.9888 10.4236 16.2588 9.27688C16.3128 9.04976 16.1968 8.32394 15.687 7.68071C15.1994 7.06288 14.5308 6.75 13.7049 6.75C10.8794 6.75 10.7365 9.04341 10.7301 9.30547L9.14188 9.26259C9.18 7.84429 10.1822 5.16176 13.7049 5.16176C15.0041 5.16176 16.1492 5.70653 16.9338 6.69441Z" fill="white"/>
</g>
<defs>
<clipPath id="clip0_449_228">
<rect width="27" height="27" fill="white"/>
</clipPath>
</defs>
</svg>
