<svg width="24" height="20" viewBox="0 0 24 20" fill="none" xmlns="http://www.w3.org/2000/svg">
<path d="M9.58376 9.86151C12.3065 9.86151 14.5145 7.65355 14.5145 4.93076C14.5145 2.20796 12.3065 0 9.58376 0C6.86097 0 4.653 2.20796 4.653 4.93076C4.65613 7.65277 6.86253 9.85838 9.58376 9.86151ZM9.58376 1.17362C11.6587 1.17362 13.3409 2.8558 13.3409 4.93076C13.3409 7.00571 11.6587 8.6879 9.58376 8.6879C7.5088 8.6879 5.82662 7.00571 5.82662 4.93076C5.82897 2.85658 7.50958 1.17596 9.58376 1.17362ZM9.58376 11.5899C4.92372 11.6094 1.02809 14.8627 0.0258196 19.2207L0.013301 19.2872C0.00469444 19.3248 0 19.3678 0 19.4124C0 19.7363 0.26289 19.9992 0.586809 19.9992C0.866129 19.9992 1.10007 19.8036 1.15875 19.5415L1.15953 19.5376C2.03896 15.6349 5.4761 12.7635 9.58454 12.7635C13.693 12.7635 17.1293 15.6349 17.9986 19.4797L18.0095 19.5376C18.0659 19.8036 18.299 20 18.5776 20C18.6237 20 18.6691 19.9945 18.7122 19.9844L18.7082 19.9851C18.9743 19.9257 19.1699 19.6917 19.1699 19.4116C19.1699 19.367 19.1652 19.324 19.1558 19.2825L19.1566 19.2864C18.1402 14.8627 14.2461 11.6094 9.58767 11.5891H9.58532L9.58376 11.5899ZM22.4935 8.24114H20.3404V6.08716C20.3404 5.76324 20.0775 5.50035 19.7535 5.50035C19.4296 5.50035 19.1667 5.76324 19.1667 6.08716V8.24114H17.012C16.6881 8.24114 16.4252 8.50403 16.4252 8.82795C16.4252 9.15187 16.6881 9.41476 17.012 9.41476H19.1667V11.5687C19.1667 11.8927 19.4296 12.1555 19.7535 12.1555C20.0775 12.1555 20.3404 11.8927 20.3404 11.5687V9.41476H22.4935C22.8175 9.41476 23.0804 9.15187 23.0804 8.82795C23.0804 8.50403 22.8175 8.24114 22.4935 8.24114Z" fill="#0E3AAB"/>
</svg>
