<svg width="122" height="45" viewBox="0 0 122 45" fill="none" xmlns="http://www.w3.org/2000/svg">
<path d="M32.072 1.016V1.928C31.048 2.152 29.944 2.6 28.76 3.272C27.608 3.944 26.392 5.032 25.112 6.536L16.088 17.288L18.872 13.304L30.296 31.112C30.744 31.848 31.224 32.44 31.736 32.888C32.248 33.336 32.92 33.72 33.752 34.04V35C32.632 34.936 31.384 34.904 30.008 34.904C28.632 34.872 27.384 34.856 26.264 34.856C25.592 34.856 24.776 34.872 23.816 34.904C22.856 34.904 21.64 34.936 20.168 35V34.04C21.48 33.976 22.264 33.8 22.52 33.512C22.808 33.192 22.696 32.648 22.184 31.88L15.224 20.6C14.776 19.864 14.376 19.32 14.024 18.968C13.672 18.584 13.32 18.328 12.968 18.2C12.616 18.04 12.152 17.944 11.576 17.912V16.904C12.984 16.872 14.232 16.488 15.32 15.752C16.44 15.016 17.656 13.896 18.968 12.392L21.8 8.984C23.016 7.544 23.72 6.312 23.912 5.288C24.136 4.232 23.928 3.416 23.288 2.84C22.68 2.264 21.736 1.96 20.456 1.928V1.016C21.256 1.048 22.008 1.08 22.712 1.112C23.448 1.112 24.2 1.128 24.968 1.16C25.768 1.16 26.632 1.16 27.56 1.16C28.488 1.16 29.32 1.144 30.056 1.112C30.824 1.08 31.496 1.048 32.072 1.016ZM15.464 1.016V1.976C14.44 2.008 13.656 2.136 13.112 2.36C12.6 2.552 12.264 2.936 12.104 3.512C11.944 4.056 11.864 4.92 11.864 6.104V29.912C11.864 31.064 11.944 31.928 12.104 32.504C12.296 33.08 12.648 33.464 13.16 33.656C13.672 33.848 14.44 33.976 15.464 34.04V35C14.6 34.936 13.512 34.904 12.2 34.904C10.888 34.872 9.56 34.856 8.216 34.856C6.68 34.856 5.224 34.872 3.848 34.904C2.504 34.904 1.432 34.936 0.632 35V34.04C1.656 33.976 2.424 33.848 2.936 33.656C3.448 33.464 3.784 33.08 3.944 32.504C4.136 31.928 4.232 31.064 4.232 29.912V6.104C4.232 4.92 4.136 4.056 3.944 3.512C3.784 2.936 3.432 2.552 2.888 2.36C2.376 2.136 1.624 2.008 0.632 1.976V1.016C1.432 1.048 2.504 1.08 3.848 1.112C5.224 1.144 6.68 1.16 8.216 1.16C9.56 1.16 10.888 1.144 12.2 1.112C13.512 1.08 14.6 1.048 15.464 1.016ZM32.1616 44.024V43.064C33.4416 42.936 34.5296 42.552 35.4256 41.912C36.3216 41.304 37.0096 40.248 37.4896 38.744C37.9696 37.24 38.2096 35.128 38.2096 32.408V6.104C38.2096 4.92 38.1136 4.056 37.9216 3.512C37.7616 2.936 37.4256 2.552 36.9136 2.36C36.4016 2.136 35.6336 2.008 34.6096 1.976V1.016C35.4096 1.048 36.4496 1.08 37.7296 1.112C39.0416 1.144 40.4176 1.16 41.8576 1.16C43.2976 1.16 44.6896 1.144 46.0336 1.112C47.4096 1.08 48.5456 1.048 49.4416 1.016V1.976C48.4496 2.008 47.6816 2.136 47.1376 2.36C46.6256 2.552 46.2736 2.936 46.0816 3.512C45.9216 4.056 45.8416 4.92 45.8416 6.104V23.672C45.8416 24.984 45.8416 26.408 45.8416 27.944C45.8416 29.448 45.7776 30.92 45.6496 32.36C45.5536 33.8 45.3456 35.08 45.0256 36.2C44.3856 38.408 42.9936 40.264 40.8496 41.768C38.7376 43.272 35.8416 44.024 32.1616 44.024ZM93.662 1.016V1.976C92.638 2.008 91.87 2.136 91.358 2.36C90.846 2.552 90.494 2.936 90.302 3.512C90.142 4.056 90.062 4.92 90.062 6.104V29.912C90.062 31.064 90.142 31.928 90.302 32.504C90.494 33.08 90.846 33.464 91.358 33.656C91.87 33.848 92.638 33.976 93.662 34.04V35C92.766 34.936 91.63 34.904 90.254 34.904C88.91 34.872 87.534 34.856 86.126 34.856C84.59 34.856 83.15 34.872 81.806 34.904C80.462 34.904 79.374 34.936 78.542 35V34.04C79.63 33.976 80.446 33.848 80.99 33.656C81.566 33.464 81.95 33.08 82.142 32.504C82.334 31.928 82.43 31.064 82.43 29.912V3.944H82.766L70.862 35.048H70.094L57.134 4.136V27.128C57.134 28.888 57.23 30.248 57.422 31.208C57.614 32.136 58.03 32.808 58.67 33.224C59.342 33.608 60.382 33.88 61.79 34.04V35C61.182 34.936 60.382 34.904 59.39 34.904C58.398 34.872 57.47 34.856 56.606 34.856C55.87 34.856 55.118 34.872 54.35 34.904C53.582 34.904 52.942 34.936 52.43 35V34.04C53.454 33.88 54.222 33.608 54.734 33.224C55.246 32.84 55.582 32.216 55.742 31.352C55.934 30.456 56.03 29.24 56.03 27.704V6.104C56.03 4.92 55.934 4.056 55.742 3.512C55.582 2.936 55.23 2.552 54.686 2.36C54.174 2.136 53.422 2.008 52.43 1.976V1.016C52.942 1.048 53.582 1.08 54.35 1.112C55.118 1.144 55.87 1.16 56.606 1.16C57.982 1.16 59.326 1.144 60.638 1.112C61.982 1.08 63.166 1.048 64.19 1.016L74.27 25.352L73.07 26.456L82.718 1.16C83.262 1.16 83.822 1.16 84.398 1.16C84.974 1.16 85.55 1.16 86.126 1.16C87.534 1.16 88.91 1.144 90.254 1.112C91.63 1.08 92.766 1.048 93.662 1.016ZM108.866 0.391999C110.754 0.391999 112.21 0.599999 113.234 1.016C114.258 1.4 115.138 1.816 115.874 2.264C116.258 2.488 116.562 2.664 116.786 2.792C117.042 2.888 117.282 2.936 117.506 2.936C117.826 2.936 118.05 2.76 118.178 2.408C118.338 2.056 118.466 1.528 118.562 0.823999H119.666C119.634 1.432 119.586 2.168 119.522 3.032C119.49 3.864 119.458 4.968 119.426 6.344C119.426 7.72 119.426 9.528 119.426 11.768H118.322C118.194 10.104 117.81 8.488 117.17 6.92C116.53 5.352 115.618 4.072 114.434 3.08C113.282 2.056 111.858 1.544 110.162 1.544C108.626 1.544 107.362 1.976 106.37 2.84C105.378 3.704 104.882 4.904 104.882 6.44C104.882 7.72 105.202 8.824 105.842 9.752C106.482 10.648 107.41 11.528 108.626 12.392C109.874 13.256 111.378 14.296 113.138 15.512C114.674 16.504 116.05 17.496 117.266 18.488C118.482 19.48 119.458 20.6 120.194 21.848C120.93 23.096 121.298 24.584 121.298 26.312C121.298 28.424 120.738 30.168 119.618 31.544C118.53 32.92 117.09 33.96 115.298 34.664C113.506 35.336 111.538 35.672 109.394 35.672C107.41 35.672 105.826 35.48 104.642 35.096C103.458 34.712 102.466 34.312 101.666 33.896C100.962 33.448 100.418 33.224 100.034 33.224C99.7144 33.224 99.4744 33.4 99.3144 33.752C99.1864 34.104 99.0744 34.632 98.9784 35.336H97.8744C97.9384 34.568 97.9704 33.672 97.9704 32.648C98.0024 31.624 98.0184 30.296 98.0184 28.664C98.0504 27 98.0664 24.904 98.0664 22.376H99.1704C99.2984 24.488 99.6504 26.472 100.226 28.328C100.834 30.152 101.746 31.624 102.962 32.744C104.21 33.864 105.858 34.424 107.906 34.424C109.026 34.424 110.018 34.232 110.882 33.848C111.778 33.432 112.498 32.824 113.042 32.024C113.586 31.224 113.858 30.232 113.858 29.048C113.858 27.704 113.538 26.536 112.898 25.544C112.29 24.552 111.442 23.624 110.354 22.76C109.298 21.896 108.066 21.016 106.658 20.12C105.154 19.128 103.746 18.136 102.434 17.144C101.122 16.152 100.066 15.016 99.2664 13.736C98.4984 12.456 98.1144 10.936 98.1144 9.176C98.1144 7.16 98.6104 5.512 99.6024 4.232C100.626 2.92 101.954 1.96 103.586 1.352C105.25 0.711999 107.01 0.391999 108.866 0.391999Z" fill="white"/>
</svg>
