<svg width="20" height="20" viewBox="0 0 20 20" fill="none" xmlns="http://www.w3.org/2000/svg">
<g clip-path="url(#clip0_877_841)">
<path d="M19.52 1.35529C19.4576 1.34352 17.9659 1.06823 16.0129 1.06823C13.5365 1.06823 11.5094 1.49882 9.98353 2.34823C8.19765 1.44823 6.14353 0.992935 3.87059 0.992935C1.89294 0.992935 0.498824 1.34823 0.441176 1.36352L0 1.47882L0.00117647 17.8388L0.735294 17.6494C0.748235 17.6471 2.05294 17.3165 3.87059 17.3165C5.57294 17.3165 7.13059 17.5988 8.52941 18.1435V19.1176H11.4706V18.1106C12.9776 17.5365 14.7024 17.3918 16.0118 17.3918C17.8494 17.3918 19.2894 17.6565 19.3035 17.6588L20 17.7882V1.44588L19.52 1.35529ZM1.17647 16.3612V2.41058C1.70706 2.31176 2.67882 2.16941 3.87059 2.16941C5.94235 2.16941 7.79882 2.59294 9.41177 3.39764V17.2518C7.76118 16.5259 5.90941 16.14 3.87059 16.14C2.73059 16.14 1.78471 16.2588 1.17647 16.3612ZM18.8235 16.3976C18.1929 16.3153 17.1847 16.2165 16.0118 16.2165C13.8376 16.2165 12.0341 16.5671 10.5882 17.2223V3.37176C12.2612 2.45411 14.4365 2.2447 16.0118 2.2447C17.2153 2.2447 18.2494 2.35882 18.8235 2.43764V16.3976Z" fill="white" stroke="white"/>
</g>
<defs>
<clipPath id="clip0_877_841">
<rect width="20" height="20" fill="white"/>
</clipPath>
</defs>
</svg>
