<svg xmlns="http://www.w3.org/2000/svg" width="21" height="25" viewBox="0 0 21 25" fill="none">
<path d="M3.39465 17.7207V7.68823" stroke="#6a6a65" stroke-linecap="round" stroke-linejoin="round" fill="#ffffff"/>
<path d="M3.39465 5.29972V3.86616C3.39465 3.48973 3.469 3.11699 3.61344 2.76922C3.75788 2.42145 3.96958 2.10546 4.23647 1.83931C4.50336 1.57316 4.82019 1.36205 5.16889 1.21804C5.51758 1.07403 5.8913 0.999938 6.2687 1H16.8061C17.5682 1 18.2991 1.30197 18.838 1.83948C19.3769 2.37699 19.6796 3.10601 19.6796 3.86616V21.5427C19.6796 22.3029 19.3769 23.0319 18.838 23.5694C18.2991 24.1069 17.5682 24.4089 16.8061 24.4089H6.2687C5.8913 24.409 5.51758 24.3349 5.16889 24.1909C4.82019 24.0468 4.50336 23.8357 4.23647 23.5696C3.96958 23.3034 3.75788 22.9874 3.61344 22.6397C3.469 22.2919 3.39465 21.9192 3.39465 21.5427V20.1092" stroke="#6a6a65" stroke-linecap="round" stroke-linejoin="round" fill="#ffffff"/>
<path d="M4.59244 5.2998H2.19732C1.53606 5.2998 1 5.83448 1 6.49404C1 7.1536 1.53606 7.68827 2.19732 7.68827H4.59244C5.2537 7.68827 5.78976 7.1536 5.78976 6.49404C5.78976 5.83448 5.2537 5.2998 4.59244 5.2998Z" stroke="#6a6a65" stroke-linecap="round" stroke-linejoin="round" fill="#ffffff"/>
<path d="M4.59244 17.7207H2.19732C1.53606 17.7207 1 18.2554 1 18.9149C1 19.5745 1.53606 20.1092 2.19732 20.1092H4.59244C5.2537 20.1092 5.78976 19.5745 5.78976 18.9149C5.78976 18.2554 5.2537 17.7207 4.59244 17.7207Z" stroke="#6a6a65" stroke-linecap="round" stroke-linejoin="round" fill="#ffffff"/>
<path d="M11.2979 11.5815C10.2181 11.5815 9.18257 12.0094 8.41904 12.7709C7.65551 13.5325 7.22656 14.5654 7.22656 15.6424H15.3688C15.3688 14.5655 14.9399 13.5327 14.1765 12.7711C13.4131 12.0096 12.3776 11.5817 11.2979 11.5815Z" stroke="#6a6a65" stroke-linecap="round" stroke-linejoin="round" fill="#ffffff"/>
<path d="M11.2979 11.5822C12.1973 11.5822 12.9264 10.8549 12.9264 9.95784C12.9264 9.06074 12.1973 8.3335 11.2979 8.3335C10.3984 8.3335 9.66931 9.06074 9.66931 9.95784C9.66931 10.8549 10.3984 11.5822 11.2979 11.5822Z" stroke="#6a6a65" stroke-linecap="round" stroke-linejoin="round" fill="#ffffff"/>
<path d="M18.3426 5.53882H19.6782V19.8706H18.3426C18.0621 19.8706 17.7931 19.7594 17.5948 19.5616C17.3965 19.3638 17.285 19.0955 17.285 18.8157V6.59365C17.285 6.31389 17.3965 6.04559 17.5948 5.84777C17.7931 5.64995 18.0621 5.53882 18.3426 5.53882Z" stroke="#6a6a65" stroke-linecap="round" stroke-linejoin="round" fill="#ffffff"/>
<path d="M17.285 7.92676H19.6797" stroke="#6a6a65" stroke-linecap="round" stroke-linejoin="round" fill="#ffffff"/>
<path d="M17.285 10.3159H19.6797" stroke="#6a6a65" stroke-linecap="round" stroke-linejoin="round" fill="#ffffff"/>
<path d="M17.285 12.7046H19.6797" stroke="#6a6a65" stroke-linecap="round" stroke-linejoin="round" fill="#ffffff"/>
<path d="M17.285 15.0928H19.6797" stroke="#6a6a65" stroke-linecap="round" stroke-linejoin="round" fill="#ffffff"/>
<path d="M17.285 17.4822H19.6797" stroke="#6a6a65" stroke-linecap="round" stroke-linejoin="round" fill="#ffffff"/>
</svg>