<svg xmlns="http://www.w3.org/2000/svg" width="17" height="17" viewBox="0 0 17 17" fill="none">
<g clip-path="url(#clip0_449_223)">
<path d="M16.604 15.868L11.431 10.695C12.406 9.55805 13 8.08405 13 6.47205C13 2.88805 10.084 -0.0279541 6.5 -0.0279541C4.764 -0.0279541 3.131 0.648046 1.902 1.87505C0.675001 3.10305 -0.000998892 4.73605 1.10788e-06 6.47205C1.10788e-06 10.056 2.916 12.972 6.5 12.972C8.112 12.972 9.587 12.378 10.724 11.403L15.897 16.576L16.604 15.868ZM6.5 11.972C3.468 11.972 1 9.50505 1 6.47205C0.999001 5.00205 1.571 3.62105 2.61 2.58305C3.648 1.54405 5.03 0.972046 6.5 0.972046C9.532 0.972046 12 3.43905 12 6.47205C12 9.50405 9.532 11.972 6.5 11.972Z" fill="#9198b0"/>
</g>
<defs fill="#9198b0">
<clipPath id="clip0_449_223" fill="#9198b0">
<rect width="17" height="17" fill="#9198b0"/>
</clipPath>
</defs>
</svg>