<svg width="27" height="27" viewBox="0 0 27 27" fill="none" xmlns="http://www.w3.org/2000/svg">
<g clip-path="url(#clip0_449_226)">
<path d="M13.5 9.48498C11.3114 9.48498 9.52941 11.267 9.52941 13.4556C9.52941 15.6442 11.3114 17.4262 13.5 17.4262C15.6886 17.4262 17.4706 15.6442 17.4706 13.4556C17.4706 11.267 15.6886 9.48498 13.5 9.48498ZM13.5 15.8379C12.1865 15.8379 11.1176 14.769 11.1176 13.4556C11.1176 12.1421 12.1865 11.0732 13.5 11.0732C14.8135 11.0732 15.8824 12.1421 15.8824 13.4556C15.8824 14.769 14.8135 15.8379 13.5 15.8379ZM26.9047 15.0025C26.9635 14.4927 27 13.9781 27 13.4556C27 12.933 26.9635 12.4184 26.9047 11.9086L22.7944 10.673C22.6054 10.0345 22.3528 9.42304 22.0415 8.8481L24.0729 5.07286C23.4281 4.26286 22.6927 3.52751 21.8811 2.8811L18.1059 4.91404C17.5294 4.60274 16.9179 4.3518 16.2794 4.16121L15.0469 0.0508605C14.5387 -0.00790418 14.0241 -0.0444336 13.5 -0.0444336C12.9759 -0.0444336 12.4613 -0.00790418 11.9531 0.0508605L10.7206 4.16121C10.0805 4.35021 9.46747 4.60274 8.89412 4.91563L5.11888 2.88268C4.30729 3.52751 3.57194 4.26286 2.92871 5.07445L4.96006 8.84651C4.64876 9.42145 4.39782 10.0345 4.20723 10.673L0.0952941 11.9086C0.0365294 12.4169 0 12.9314 0 13.4556C0 13.9797 0.0365294 14.4943 0.0952941 15.0025L4.20565 16.235C4.39623 16.875 4.64718 17.4881 4.95847 18.063L2.92712 21.8367C3.57194 22.6483 4.30729 23.3836 5.11888 24.0284L8.89412 21.9971C9.46906 22.3084 10.0821 22.5593 10.7206 22.7499L11.9531 26.8603C12.4629 26.919 12.9775 26.9556 13.5 26.9556C14.0225 26.9556 14.5387 26.919 15.0469 26.8603L16.2794 22.7499C16.9179 22.5593 17.5309 22.3084 18.1059 21.9971L21.8795 24.0284C22.6911 23.382 23.4265 22.6467 24.0713 21.8351L22.0415 18.0614C22.3528 17.4865 22.6038 16.8734 22.7944 16.235L26.9047 15.0025ZM21.5174 14.9596L21.2728 15.7823C21.114 16.3176 20.9028 16.8306 20.6439 17.3054L20.2373 18.0599L20.6423 18.8143L22.1543 21.6254C21.9971 21.7922 21.8351 21.9542 21.6683 22.1114L18.1059 20.1913L17.3515 20.5979C16.8734 20.8567 16.3604 21.0664 15.8268 21.2268L15.0041 21.4714L14.7579 22.2941L13.8383 25.3626C13.7239 25.3657 13.6112 25.3673 13.5 25.3673C13.3888 25.3673 13.2761 25.3657 13.1617 25.3626L12.2421 22.2941L11.9959 21.4714L11.1732 21.2268C10.6396 21.068 10.1266 20.8567 9.65012 20.5979L8.89571 20.1913L5.33012 22.1083C5.16494 21.951 5.00135 21.789 4.84412 21.6223L6.76271 18.0583L6.35612 17.3039C6.09882 16.8274 5.88759 16.3144 5.72718 15.7792L5.48418 14.958L1.59459 13.7923C1.58982 13.6779 1.58824 13.5652 1.58824 13.4556C1.58824 13.3444 1.58982 13.2316 1.59459 13.1173L5.48259 11.9515L5.72718 11.1288C5.886 10.5936 6.09723 10.0806 6.35612 9.60568L6.76271 8.85127L4.84412 5.28568C5.00135 5.12051 5.16335 4.95692 5.32853 4.79968L8.89729 6.72145L9.65329 6.3101C10.125 6.0528 10.6364 5.84157 11.1716 5.68274L11.9944 5.43815L12.2405 4.61545L13.1601 1.54698C13.2761 1.54539 13.3888 1.5438 13.5 1.5438C13.6112 1.5438 13.7239 1.54539 13.8383 1.54857L14.7579 4.61704L15.0041 5.43974L15.8268 5.68433C16.3588 5.84315 16.8734 6.05439 17.3515 6.31327L18.1059 6.71827L21.6699 4.79968C21.8351 4.95692 21.9986 5.11892 22.1559 5.28568L20.6423 8.09686L20.2373 8.85127L20.6455 9.60568C20.9044 10.0822 21.114 10.5936 21.2728 11.1256L21.5174 11.9483L22.3401 12.1945L25.4086 13.1173C25.4102 13.2316 25.4118 13.3444 25.4118 13.4556C25.4118 13.5667 25.4102 13.6795 25.4054 13.7939L21.5174 14.9596Z" fill="#6a6a65"/>
</g>
<defs fill="#000000">
<clipPath id="clip0_449_226" fill="#000000">
<rect width="27" height="27" fill="#6a6a65"/>
</clipPath>
</defs>
</svg>