<svg width="20" height="20" viewBox="0 0 20 20" fill="none" xmlns="http://www.w3.org/2000/svg">
<g clip-path="url(#clip0_877_842)">
<path d="M20 4.70589V5.88236H5.88235V4.70589H20ZM3.52941 5.29412C3.52941 6.26707 2.73765 7.05883 1.76471 7.05883C0.791765 7.05883 0 6.26707 0 5.29412C0 4.32118 0.791765 3.52942 1.76471 3.52942C2.73765 3.52942 3.52941 4.32118 3.52941 5.29412ZM2.35294 5.29412C2.35294 4.9706 2.08941 4.70589 1.76471 4.70589C1.44 4.70589 1.17647 4.9706 1.17647 5.29412C1.17647 5.61765 1.44 5.88236 1.76471 5.88236C2.08941 5.88236 2.35294 5.61765 2.35294 5.29412ZM5.88235 10.5882H20V9.41177H5.88235V10.5882ZM3.52941 10C3.52941 10.9729 2.73765 11.7647 1.76471 11.7647C0.791765 11.7647 0 10.9729 0 10C0 9.02707 0.791765 8.2353 1.76471 8.2353C2.73765 8.2353 3.52941 9.02707 3.52941 10ZM2.35294 10C2.35294 9.67648 2.08941 9.41177 1.76471 9.41177C1.44 9.41177 1.17647 9.67648 1.17647 10C1.17647 10.3235 1.44 10.5882 1.76471 10.5882C2.08941 10.5882 2.35294 10.3235 2.35294 10ZM5.88235 15.2941H20V14.1177H5.88235V15.2941ZM3.52941 14.7059C3.52941 15.6788 2.73765 16.4706 1.76471 16.4706C0.791765 16.4706 0 15.6788 0 14.7059C0 13.7329 0.791765 12.9412 1.76471 12.9412C2.73765 12.9412 3.52941 13.7329 3.52941 14.7059ZM2.35294 14.7059C2.35294 14.3824 2.08941 14.1177 1.76471 14.1177C1.44 14.1177 1.17647 14.3824 1.17647 14.7059C1.17647 15.0294 1.44 15.2941 1.76471 15.2941C2.08941 15.2941 2.35294 15.0294 2.35294 14.7059Z" fill="white" stroke="white"/>
</g>
<defs>
<clipPath id="clip0_877_842">
<rect width="20" height="20" fill="white"/>
</clipPath>
</defs>
</svg>
