<svg width="20" height="24" viewBox="0 0 20 24" fill="none" xmlns="http://www.w3.org/2000/svg">
<path d="M20 13.8756V5.29639V5.29586V0.529613C20 0.237161 19.7201 0 19.375 0H3.125C1.40188 0 0 1.18792 0 2.64806V20.7608C0 22.221 1.40188 23.4089 3.125 23.4089H19.375C19.7201 23.4089 20 23.1717 20 22.8793C20 22.5868 19.7201 22.3497 19.375 22.3497H19.0226V19.172H19.375C19.7201 19.172 20 18.9348 20 18.6424V13.8761V13.8756ZM18.75 18.1128H15.2589L18.75 15.1545V18.1128ZM18.75 4.01748L15.2589 1.05923H18.75V4.01748ZM1.25 2.64806C1.25 1.77198 2.09113 1.05923 3.125 1.05923V13.6581C3.125 13.9506 3.40488 14.1877 3.75 14.1877C4.09513 14.1877 4.375 13.9506 4.375 13.6581V1.05923H13.4911L18.75 5.51555V13.6565L13.4911 18.1128H4.375V15.4647C4.375 15.1722 4.09513 14.9351 3.75 14.9351C3.40488 14.9351 3.125 15.1722 3.125 15.4647V18.1128C2.42212 18.1128 1.77262 18.3105 1.25 18.6436V2.64806ZM17.7726 22.3497H3.125C2.09113 22.3497 1.25 21.6369 1.25 20.7608C1.25 19.8847 2.09113 19.172 3.125 19.172H17.7726V22.3497Z" fill="#6A6A65"/>
</svg>
