<svg width="50" height="50" viewBox="0 0 50 50" fill="none" xmlns="http://www.w3.org/2000/svg">
<path d="M9 0C7.35547 0 6 1.35547 6 3V50H44V3C44 1.35547 42.6445 0 41 0H9ZM9 2H41C41.5547 2 42 2.44531 42 3V48H38V36H27V48H8V3C8 2.44531 8.44531 2 9 2ZM12 6V14H23V6H12ZM27 6V14H38V6H27ZM14 8H21V12H14V8ZM29 8H36V12H29V8ZM12 16V24H23V16H12ZM27 16V24H38V16H27ZM14 18H21V22H14V18ZM29 18H36V22H29V18ZM12 26V34H23V26H12ZM27 26V34H38V26H27ZM14 28H21V32H14V28ZM29 28H36V32H29V28ZM12 36V44H23V36H12ZM14 38H21V42H14V38ZM29 38H36V48H29V38Z" fill="#9198B0"/>
</svg>
